<svg xmlns="http://www.w3.org/2000/svg" xmlns:xlink="http://www.w3.org/1999/xlink" width="100" zoomAndPan="magnify" viewBox="0 0 75 74.999997" height="100" preserveAspectRatio="xMidYMid meet" version="1.0"><defs><clipPath id="4423dbd309"><path d="M 10.097656 5.085938 L 64.992188 5.085938 L 64.992188 70.339844 L 10.097656 70.339844 Z M 10.097656 5.085938 " clip-rule="nonzero"/></clipPath></defs><g clip-path="url(#4423dbd309)"><path fill="#737373" d="M 41.007812 6.285156 L 44.484375 8.886719 C 45.4375 9.597656 46.4375 9.960938 47.625 10.023438 L 51.960938 10.265625 C 54.558594 10.410156 56.667969 12.175781 57.257812 14.703125 L 58.25 18.925781 C 58.519531 20.082031 59.054688 21.003906 59.921875 21.816406 L 63.085938 24.78125 C 64.984375 26.558594 65.460938 29.265625 64.289062 31.582031 L 62.328125 35.453125 C 61.792969 36.511719 61.609375 37.558594 61.75 38.738281 L 62.265625 43.042969 C 62.574219 45.621094 61.195312 48 58.804688 49.023438 L 54.8125 50.730469 C 53.71875 51.199219 52.90625 51.882812 52.253906 52.875 L 49.875 56.503906 C 48.453125 58.675781 45.867188 59.617188 43.375 58.867188 L 39.21875 57.609375 C 38.082031 57.269531 37.015625 57.269531 35.878906 57.609375 L 31.71875 58.867188 C 29.230469 59.617188 26.644531 58.675781 25.21875 56.503906 L 22.84375 52.875 C 22.191406 51.882812 21.375 51.199219 20.285156 50.730469 L 16.289062 49.023438 C 13.898438 48 12.523438 45.621094 12.832031 43.042969 L 13.347656 38.738281 C 13.488281 37.558594 13.304688 36.511719 12.765625 35.453125 L 10.808594 31.582031 C 9.632812 29.265625 10.113281 26.558594 12.007812 24.78125 L 15.175781 21.816406 C 16.042969 21.003906 16.574219 20.082031 16.847656 18.925781 L 17.835938 14.703125 C 18.429688 12.175781 20.539062 10.410156 23.136719 10.265625 L 27.472656 10.023438 C 28.660156 9.960938 29.660156 9.59375 30.613281 8.886719 L 34.089844 6.285156 C 36.171875 4.730469 38.925781 4.730469 41.007812 6.285156 Z M 35.328125 33.609375 L 31.554688 29.839844 C 30.578125 28.863281 28.992188 28.863281 28.011719 29.839844 C 27.035156 30.816406 27.035156 32.398438 28.011719 33.375 L 33.5625 38.917969 C 34.542969 39.894531 36.128906 39.894531 37.105469 38.917969 C 40.453125 35.578125 43.761719 32.199219 47.089844 28.84375 C 48.0625 27.867188 48.058594 26.289062 47.078125 25.316406 C 46.101562 24.34375 44.515625 24.347656 43.542969 25.328125 Z M 37.546875 13.347656 C 32.355469 13.347656 27.65625 15.449219 24.253906 18.847656 C 20.847656 22.242188 18.746094 26.9375 18.746094 32.121094 C 18.746094 37.304688 20.851562 41.996094 24.253906 45.394531 C 27.65625 48.789062 32.355469 50.890625 37.546875 50.890625 C 42.742188 50.890625 47.441406 48.789062 50.84375 45.394531 C 54.246094 41.996094 56.351562 37.304688 56.351562 32.121094 C 56.351562 26.9375 54.246094 22.242188 50.84375 18.847656 C 47.441406 15.449219 42.742188 13.347656 37.546875 13.347656 Z M 49.34375 20.34375 C 46.324219 17.328125 42.15625 15.464844 37.546875 15.464844 C 32.941406 15.464844 28.769531 17.328125 25.75 20.34375 C 22.734375 23.355469 20.867188 27.519531 20.867188 32.121094 C 20.867188 36.71875 22.734375 40.882812 25.75 43.898438 C 28.769531 46.910156 32.941406 48.773438 37.546875 48.773438 C 42.15625 48.773438 46.324219 46.910156 49.34375 43.898438 C 52.363281 40.882812 54.230469 36.71875 54.230469 32.121094 C 54.230469 27.519531 52.363281 23.355469 49.34375 20.34375 Z M 44.613281 61.222656 L 48.734375 70.058594 C 48.800781 70.195312 48.925781 70.28125 49.078125 70.289062 C 49.230469 70.296875 49.363281 70.222656 49.4375 70.089844 L 52.511719 64.808594 L 58.539062 65.863281 C 58.6875 65.886719 58.832031 65.832031 58.925781 65.710938 C 59.015625 65.589844 59.03125 65.441406 58.96875 65.304688 L 53.84375 54.316406 L 51.652344 57.660156 C 50.070312 60.078125 47.386719 61.386719 44.613281 61.222656 Z M 30.640625 61.210938 C 27.808594 61.433594 25.058594 60.125 23.445312 57.660156 L 21.34375 54.453125 L 16.28125 65.304688 C 16.21875 65.441406 16.234375 65.59375 16.328125 65.710938 C 16.417969 65.832031 16.5625 65.886719 16.710938 65.863281 L 22.738281 64.808594 L 25.8125 70.089844 C 25.886719 70.222656 26.019531 70.296875 26.171875 70.289062 C 26.324219 70.28125 26.453125 70.195312 26.515625 70.058594 Z M 30.640625 61.210938 " fill-opacity="1" fill-rule="evenodd"/></g></svg>