<svg xmlns="http://www.w3.org/2000/svg" xmlns:xlink="http://www.w3.org/1999/xlink" width="100" zoomAndPan="magnify" viewBox="0 0 75 74.999997" height="100" preserveAspectRatio="xMidYMid meet" version="1.0"><defs><clipPath id="1ad626af35"><path d="M 3.628906 9.359375 L 71.363281 9.359375 L 71.363281 65.171875 L 3.628906 65.171875 Z M 3.628906 9.359375 " clip-rule="nonzero"/></clipPath></defs><g clip-path="url(#1ad626af35)"><path fill="#737373" d="M 3.65625 37.003906 C 3.636719 36.167969 3.613281 35.304688 3.648438 34.40625 C 3.878906 29.167969 8.242188 25.0625 13.457031 25.101562 C 17.507812 15.851562 26.761719 9.371094 37.507812 9.371094 C 48.253906 9.371094 57.507812 15.851562 61.558594 25.101562 C 66.773438 25.0625 71.140625 29.164062 71.363281 34.40625 C 71.402344 35.304688 71.378906 36.167969 71.359375 37.003906 C 71.332031 37.890625 71.308594 38.804688 71.351562 39.832031 C 71.582031 45.191406 67.402344 49.738281 62.03125 49.96875 C 61.882812 49.972656 61.730469 49.976562 61.582031 49.976562 C 60.890625 49.976562 60.210938 49.902344 59.539062 49.757812 C 58.773438 50.941406 57.90625 52.066406 56.941406 53.125 C 52.9375 57.527344 47.597656 60.417969 41.773438 61.371094 C 41.007812 63.601562 38.886719 65.214844 36.394531 65.214844 C 33.261719 65.214844 30.714844 62.671875 30.714844 59.546875 C 30.714844 56.417969 33.261719 53.878906 36.394531 53.878906 C 38.710938 53.878906 40.707031 55.269531 41.589844 57.253906 C 52 55.332031 59.644531 46.296875 59.644531 35.546875 C 59.644531 23.371094 49.714844 13.460938 37.507812 13.460938 C 25.300781 13.460938 15.371094 23.367188 15.371094 35.546875 C 15.371094 39.316406 16.339844 43.035156 18.171875 46.304688 C 18.238281 46.425781 18.285156 46.539062 18.3125 46.652344 C 18.46875 47.085938 18.472656 47.5625 18.320312 48.003906 C 18.128906 48.554688 17.714844 49 17.175781 49.222656 C 15.972656 49.722656 14.71875 49.976562 13.429688 49.976562 C 13.28125 49.976562 13.128906 49.972656 12.976562 49.964844 C 7.613281 49.738281 3.433594 45.191406 3.660156 39.832031 C 3.707031 38.804688 3.679688 37.890625 3.65625 37.003906 Z M 54.691406 35.546875 C 54.691406 45.011719 47 52.6875 37.507812 52.6875 C 35.65625 52.6875 33.871094 52.394531 32.195312 51.851562 L 23.4375 56.894531 L 25.804688 48.09375 C 22.429688 44.964844 20.320312 40.5 20.320312 35.546875 C 20.320312 26.078125 28.019531 18.398438 37.507812 18.398438 C 47 18.398438 54.691406 26.078125 54.691406 35.546875 Z M 32.730469 35.546875 C 32.730469 34.417969 31.8125 33.503906 30.679688 33.503906 L 30.675781 33.503906 C 29.546875 33.503906 28.628906 34.417969 28.628906 35.546875 C 28.628906 36.675781 29.550781 37.589844 30.679688 37.589844 C 31.8125 37.589844 32.730469 36.675781 32.730469 35.546875 Z M 39.558594 35.546875 C 39.558594 34.417969 38.640625 33.503906 37.511719 33.503906 L 37.507812 33.503906 C 36.375 33.503906 35.457031 34.417969 35.457031 35.546875 C 35.457031 36.675781 36.378906 37.589844 37.511719 37.589844 C 38.640625 37.589844 39.558594 36.675781 39.558594 35.546875 Z M 46.386719 35.546875 C 46.386719 34.417969 45.46875 33.503906 44.339844 33.503906 L 44.335938 33.503906 C 43.203125 33.503906 42.289062 34.417969 42.289062 35.546875 C 42.289062 36.675781 43.207031 37.589844 44.339844 37.589844 C 45.46875 37.589844 46.386719 36.675781 46.386719 35.546875 Z M 46.386719 35.546875 " fill-opacity="1" fill-rule="nonzero"/></g></svg>