<svg xmlns="http://www.w3.org/2000/svg" xmlns:xlink="http://www.w3.org/1999/xlink" width="100" zoomAndPan="magnify" viewBox="0 0 75 74.999997" height="100" preserveAspectRatio="xMidYMid meet" version="1.0"><defs><clipPath id="67d577dc85"><path d="M 18.402344 22.9375 L 71.320312 22.9375 L 71.320312 51.261719 L 18.402344 51.261719 Z M 18.402344 22.9375 " clip-rule="nonzero"/></clipPath><clipPath id="fb2271d520"><path d="M 25.449219 46.238281 L 35.390625 46.238281 L 35.390625 56.070312 L 25.449219 56.070312 Z M 25.449219 46.238281 " clip-rule="nonzero"/></clipPath><clipPath id="d1f332710c"><path d="M 56.28125 46.238281 L 66.226562 46.238281 L 66.226562 56.070312 L 56.28125 56.070312 Z M 56.28125 46.238281 " clip-rule="nonzero"/></clipPath><clipPath id="bc92046435"><path d="M 3.488281 39.835938 L 18.152344 39.835938 L 18.152344 41.71875 L 3.488281 41.71875 Z M 3.488281 39.835938 " clip-rule="nonzero"/></clipPath></defs><g clip-path="url(#67d577dc85)"><path fill="#737373" d="M 70.984375 39.957031 L 65.726562 30.664062 C 65.386719 30.105469 64.816406 29.769531 64.203125 29.769531 L 56.914062 29.769531 L 57.359375 25.527344 C 57.546875 24.160156 56.480469 22.941406 55.097656 22.941406 L 23.984375 22.941406 C 22.84375 22.941406 21.878906 23.777344 21.722656 24.90625 L 18.441406 48.59375 C 18.253906 49.960938 19.320312 51.179688 20.703125 51.179688 L 24.355469 51.179688 C 24.355469 47.839844 27.070312 45.132812 30.417969 45.132812 C 33.765625 45.132812 36.480469 47.839844 36.480469 51.179688 L 55.230469 51.179688 C 55.230469 47.839844 57.941406 45.132812 61.289062 45.132812 C 64.636719 45.132812 67.351562 47.839844 67.351562 51.179688 L 68.445312 51.179688 C 69.464844 51.179688 70.285156 50.265625 70.285156 49.140625 L 71.300781 41.105469 C 71.300781 40.695312 71.191406 40.296875 70.980469 39.957031 Z M 65.945312 39.324219 L 57.976562 39.324219 C 57.71875 39.324219 57.519531 39.097656 57.554688 38.839844 L 58.3125 33.003906 C 58.339844 32.792969 58.519531 32.632812 58.734375 32.632812 L 62.96875 32.632812 C 63.128906 32.632812 63.277344 32.722656 63.351562 32.867188 L 66.324219 38.703125 C 66.46875 38.984375 66.261719 39.324219 65.945312 39.324219 Z M 65.945312 39.324219 " fill-opacity="1" fill-rule="nonzero"/></g><g clip-path="url(#fb2271d520)"><path fill="#737373" d="M 30.417969 46.277344 C 27.703125 46.277344 25.5 48.472656 25.5 51.183594 C 25.5 53.890625 27.703125 56.085938 30.417969 56.085938 C 33.132812 56.085938 35.335938 53.890625 35.335938 51.183594 C 35.335938 48.472656 33.132812 46.277344 30.417969 46.277344 Z M 30.417969 53.59375 C 29.085938 53.59375 28.003906 52.511719 28.003906 51.183594 C 28.003906 49.851562 29.082031 48.773438 30.417969 48.773438 C 31.753906 48.773438 32.835938 49.851562 32.835938 51.183594 C 32.835938 52.511719 31.753906 53.59375 30.417969 53.59375 Z M 30.417969 53.59375 " fill-opacity="1" fill-rule="nonzero"/></g><g clip-path="url(#d1f332710c)"><path fill="#737373" d="M 61.289062 46.277344 C 58.574219 46.277344 56.375 48.472656 56.375 51.183594 C 56.375 53.890625 58.574219 56.085938 61.289062 56.085938 C 64.007812 56.085938 66.207031 53.890625 66.207031 51.183594 C 66.207031 48.472656 64.007812 46.277344 61.289062 46.277344 Z M 61.289062 53.59375 C 59.957031 53.59375 58.875 52.511719 58.875 51.183594 C 58.875 49.851562 59.957031 48.773438 61.289062 48.773438 C 62.625 48.773438 63.707031 49.851562 63.707031 51.183594 C 63.707031 52.511719 62.625 53.59375 61.289062 53.59375 Z M 61.289062 53.59375 " fill-opacity="1" fill-rule="nonzero"/></g><path fill="#737373" d="M 5.121094 31.371094 L 19.347656 31.371094 L 19.613281 29.636719 L 5.121094 29.636719 C 4.640625 29.636719 4.25 30.027344 4.25 30.503906 C 4.25 30.984375 4.640625 31.371094 5.121094 31.371094 Z M 5.121094 31.371094 " fill-opacity="1" fill-rule="nonzero"/><path fill="#737373" d="M 10.09375 33.917969 C 10.09375 34.394531 10.480469 34.785156 10.960938 34.785156 L 18.828125 34.785156 L 19.089844 33.050781 L 10.960938 33.050781 C 10.480469 33.050781 10.09375 33.4375 10.09375 33.917969 Z M 10.09375 33.917969 " fill-opacity="1" fill-rule="nonzero"/><g clip-path="url(#bc92046435)"><path fill="#737373" d="M 3.488281 40.738281 C 3.488281 41.214844 3.878906 41.601562 4.359375 41.601562 L 17.785156 41.601562 L 18.050781 39.871094 L 4.359375 39.871094 C 3.878906 39.871094 3.488281 40.257812 3.488281 40.734375 Z M 3.488281 40.738281 " fill-opacity="1" fill-rule="nonzero"/></g><path fill="#737373" d="M 7.761719 36.464844 C 7.28125 36.464844 6.890625 36.851562 6.890625 37.332031 C 6.890625 37.808594 7.28125 38.195312 7.761719 38.195312 L 18.304688 38.195312 L 18.570312 36.464844 Z M 7.761719 36.464844 " fill-opacity="1" fill-rule="nonzero"/><path fill="#737373" d="M 11.148438 28.214844 L 19.832031 28.214844 L 20.097656 26.480469 L 11.148438 26.480469 C 10.667969 26.480469 10.277344 26.871094 10.277344 27.347656 C 10.277344 27.828125 10.667969 28.214844 11.148438 28.214844 Z M 11.148438 28.214844 " fill-opacity="1" fill-rule="nonzero"/></svg>