<svg xmlns="http://www.w3.org/2000/svg" xmlns:xlink="http://www.w3.org/1999/xlink" width="100" zoomAndPan="magnify" viewBox="0 0 75 74.999997" height="100" preserveAspectRatio="xMidYMid meet" version="1.0"><defs><clipPath id="3ffd029e91"><path d="M 3.652344 7.242188 L 64.714844 7.242188 L 64.714844 42.972656 L 3.652344 42.972656 Z M 3.652344 7.242188 " clip-rule="nonzero"/></clipPath><clipPath id="72bb11f6ca"><path d="M 10.222656 31.546875 L 71.308594 31.546875 L 71.308594 67.292969 L 10.222656 67.292969 Z M 10.222656 31.546875 " clip-rule="nonzero"/></clipPath></defs><g clip-path="url(#3ffd029e91)"><path fill="#737373" d="M 15.078125 33.707031 L 11.8125 33.707031 C 13.582031 21.15625 24.414062 11.480469 37.472656 11.480469 C 47.363281 11.480469 56.25 17.007812 60.632812 25.71875 C 61.132812 26.710938 62.300781 27.167969 63.328125 26.742188 C 64.457031 26.28125 64.972656 24.957031 64.429688 23.871094 C 59.34375 13.714844 48.992188 7.269531 37.472656 7.269531 C 22.085938 7.269531 9.363281 18.832031 7.5625 33.707031 L 4.296875 33.707031 C 3.792969 33.707031 3.496094 34.265625 3.777344 34.683594 L 9.152344 42.632812 C 9.402344 43 9.941406 43 10.191406 42.636719 L 15.59375 34.703125 C 15.875 34.289062 15.578125 33.707031 15.078125 33.707031 Z M 15.078125 33.707031 " fill-opacity="1" fill-rule="nonzero"/></g><g clip-path="url(#72bb11f6ca)"><path fill="#737373" d="M 71.175781 39.890625 L 65.796875 31.9375 C 65.550781 31.574219 65.011719 31.570312 64.761719 31.9375 L 59.355469 39.871094 C 59.074219 40.285156 59.371094 40.84375 59.875 40.847656 L 63.140625 40.851562 C 61.367188 53.402344 50.539062 63.089844 37.480469 63.089844 C 27.589844 63.089844 18.699219 57.5625 14.316406 48.855469 C 13.816406 47.863281 12.652344 47.40625 11.621094 47.828125 C 10.496094 48.292969 9.980469 49.613281 10.523438 50.703125 C 15.609375 60.855469 25.960938 67.300781 37.476562 67.300781 C 52.867188 67.300781 65.589844 55.734375 67.390625 40.859375 L 70.652344 40.863281 C 71.15625 40.863281 71.453125 40.308594 71.171875 39.890625 Z M 71.175781 39.890625 " fill-opacity="1" fill-rule="nonzero"/></g><path fill="#737373" d="M 19.824219 37.285156 C 19.824219 46.996094 27.742188 54.894531 37.476562 54.894531 C 47.207031 54.894531 55.125 46.996094 55.125 37.285156 C 55.125 27.578125 47.207031 19.675781 37.476562 19.675781 C 27.742188 19.675781 19.824219 27.574219 19.824219 37.285156 Z M 38.746094 25.546875 L 38.746094 27.691406 C 41.921875 28.167969 44.335938 30.390625 44.335938 33.058594 C 44.335938 33.800781 43.699219 34.390625 42.945312 34.324219 C 42.285156 34.261719 41.808594 33.667969 41.792969 33.007812 C 41.75 31.445312 39.789062 30.132812 37.476562 30.132812 C 35.160156 30.132812 33.160156 31.472656 33.160156 33.058594 C 33.160156 34.371094 34.601562 35.355469 37.445312 35.984375 C 42.003906 36.851562 44.335938 38.714844 44.335938 41.511719 C 44.335938 44.3125 41.925781 46.402344 38.746094 46.878906 L 38.746094 49.023438 C 38.746094 49.726562 38.179688 50.292969 37.476562 50.292969 C 36.773438 50.292969 36.207031 49.722656 36.207031 49.023438 L 36.207031 46.878906 C 33.03125 46.402344 30.617188 44.179688 30.617188 41.511719 C 30.617188 40.773438 31.25 40.183594 32.007812 40.25 C 32.667969 40.308594 33.140625 40.902344 33.160156 41.5625 C 33.199219 43.128906 35.160156 44.441406 37.476562 44.441406 C 39.792969 44.441406 41.792969 43.101562 41.792969 41.511719 C 41.792969 40.105469 40.160156 39.082031 36.933594 38.46875 C 32.730469 37.539062 30.617188 35.722656 30.617188 33.058594 C 30.617188 30.398438 33.027344 28.167969 36.207031 27.691406 L 36.207031 25.546875 C 36.207031 24.847656 36.773438 24.277344 37.476562 24.277344 C 38.179688 24.277344 38.746094 24.847656 38.746094 25.546875 Z M 38.746094 25.546875 " fill-opacity="1" fill-rule="nonzero"/></svg>